# xmcd
# 
# Track frame offsets:
#     150
#     21957
#     48100
#     78390
#     114102
#     144072
#     175382
#     196042
#     220417
#     248910
#     272382
# 
# Disc length: 3937
# 
# Revision: 3
# Processed by: cddbd v1.5.2PL0 Copyright (c) Steve Scherf et al.
# Submitted via: fre:ac v1.0.31
# 
DISCID=870f5f0b
DTITLE=Larry Carlton - The Very Best Of
DYEAR=2005
DGENRE=Jazz
TTITLE0=Remembering J.P.
TTITLE1=Smiles And Smiles To Go
TTITLE2=Things We Said Today
TTITLE3=The B.P. Blues
TTITLE4=The WafFer
TTITLE5=Mourning Dove
TTITLE6=Anthem
TTITLE7=Hello Tomorrow
TTITLE8=Emotions Wounds Us So
TTITLE9=Terry T.
TTITLE10=Honey Samba
EXTD=YEAR: 2005
EXTT0=
EXTT1=
EXTT2=
EXTT3=
EXTT4=
EXTT5=
EXTT6=
EXTT7=
EXTT8=
EXTT9=
EXTT10=
PLAYORDER=
